<svg width="59" height="60" viewBox="0 0 59 60" fill="none" xmlns="http://www.w3.org/2000/svg">
<path d="M18.9852 42.9914C18.686 42.9914 18.4005 42.8103 18.2743 42.5073C18.1776 42.2747 18.1421 42.1029 18.0824 41.8171C18.0545 41.6829 18.0182 41.5079 17.9631 41.2675C17.8657 40.8384 18.1232 40.4074 18.5387 40.3059C18.9511 40.2091 19.3703 40.4714 19.4693 40.9009C19.5267 41.155 19.5652 41.3393 19.5947 41.4814C19.646 41.7281 19.6597 41.7891 19.6959 41.8749C19.8644 42.2809 19.6831 42.7509 19.2911 42.9258C19.1913 42.9695 19.0879 42.9914 18.9852 42.9914Z" fill="white"/>
<path d="M27.8388 50.4479C27.804 50.4479 27.7694 50.4465 27.7339 50.4417C24.3241 49.9608 21.3101 47.9588 19.4641 44.9512C19.2352 44.578 19.3424 44.0845 19.7035 43.8471C20.063 43.6114 20.5412 43.7207 20.7709 44.0955C22.3715 46.7049 24.9859 48.4398 27.9424 48.8567C28.3662 48.916 28.6622 49.319 28.6048 49.7562C28.5519 50.1576 28.2195 50.4479 27.8388 50.4479Z" fill="white"/>
<path d="M29.0407 56.1088C19.8825 56.1088 12.4315 48.4071 12.4315 38.9404C12.4315 32.8323 21.0239 12.9674 23.219 8.44277C24.6844 5.42268 26.7246 3.75964 28.9651 3.75964C30.2575 3.75964 32.7231 4.36709 34.7204 8.43575C37.0347 13.1517 45.6498 32.7659 45.6498 38.9404C45.6498 48.407 38.1988 56.1088 29.0407 56.1088ZM28.9651 6.9577C27.9854 6.9577 26.8712 8.04842 25.9852 9.87628C23.2968 15.416 15.5255 34.0136 15.5255 38.9404C15.5255 46.644 21.5881 52.9107 29.0407 52.9107C36.4932 52.9107 42.5558 46.644 42.5558 38.9404C42.5558 34.0894 35.036 16.1483 31.9617 9.88257C31.0492 8.02347 29.9569 6.9577 28.9651 6.9577Z" fill="white"/>
</svg>
