<svg width="24" height="36" viewBox="0 0 24 36" fill="none" xmlns="http://www.w3.org/2000/svg">
<path d="M24 12.5417C24 5.61508 18.6274 0 12 0C5.37257 0 0 5.61508 0 12.5417C0 15.0267 0.702857 17.338 1.89429 19.2873H1.88057C5.92629 25.9075 12 35.8333 12 35.8333L22.1194 19.2873H22.1074C23.2971 17.338 24 15.0267 24 12.5417ZM12 17.9167C9.15943 17.9167 6.85714 15.5105 6.85714 12.5417C6.85714 9.57288 9.15943 7.16667 12 7.16667C14.8406 7.16667 17.1429 9.57288 17.1429 12.5417C17.1429 15.5105 14.8406 17.9167 12 17.9167Z" fill="white"/>
</svg>
