<svg width="49" height="50" viewBox="0 0 49 50" fill="none" xmlns="http://www.w3.org/2000/svg">
<path d="M27.744 29.456H1.63202V32.72H27.744C30.4368 32.72 32.64 34.9232 32.64 37.616C32.64 40.3088 30.4368 42.512 27.744 42.512C25.0512 42.512 22.848 40.3088 22.848 37.616H19.584C19.584 42.1203 23.2397 45.776 27.744 45.776C32.2483 45.776 35.904 42.1203 35.904 37.616C35.904 33.1117 32.2483 29.456 27.744 29.456ZM26.112 12.32C26.112 8.27265 22.8154 4.97601 18.768 4.97601C14.7207 4.97601 11.424 8.27265 11.424 12.32H14.688C14.688 11.2379 15.1179 10.2002 15.883 9.43502C16.6482 8.66987 17.6859 8.24001 18.768 8.24001C19.8501 8.24001 20.8879 8.66987 21.653 9.43502C22.4182 10.2002 22.848 11.2379 22.848 12.32C22.848 12.8558 22.7425 13.3864 22.5374 13.8814C22.3324 14.3764 22.0319 14.8261 21.653 15.205C21.2741 15.5839 20.8244 15.8844 20.3294 16.0894C19.8344 16.2945 19.3038 16.4 18.768 16.4H1.63202V19.664H18.768C22.8154 19.664 26.112 16.3674 26.112 12.32ZM38.1562 6.60801C32.7543 6.60801 28.3642 10.9981 28.3642 16.4H31.6282C31.6282 12.7933 34.5495 9.87201 38.1562 9.87201C41.7629 9.87201 44.6842 12.7933 44.6842 16.4C44.6842 20.0067 41.7629 22.928 38.1562 22.928H1.63202V26.192H38.1562C43.5581 26.192 47.9482 21.8019 47.9482 16.4C47.9482 10.9981 43.5418 6.60801 38.1562 6.60801Z" fill="white"/>
</svg>
